<svg id="Layer_1" data-name="Layer 1" xmlns="http://www.w3.org/2000/svg" viewBox="0 0 1107.96 249.93"><defs><style>.cls-1{fill:#fff;}</style></defs><polygon class="cls-1" points="354.86 79.86 355.33 91.72 355.21 91.72 346.88 76.81 314.58 25.14 302.96 25.14 302.96 102.64 311.88 102.64 311.88 47.92 311.41 36.18 311.53 36.18 319.75 50.74 352.16 102.64 363.79 102.64 363.79 25.14 354.86 25.14 354.86 79.86"/><path class="cls-1" d="M885.69,472.42a25.53,25.53,0,0,0-10-10.51,31.54,31.54,0,0,0-29.42,0,25.4,25.4,0,0,0-10.09,10.51,38.68,38.68,0,0,0,0,32.76,25.34,25.34,0,0,0,10.09,10.51,31.54,31.54,0,0,0,29.42,0,25.47,25.47,0,0,0,10-10.51,38.67,38.67,0,0,0,0-32.76Zm-8,28.36a17.48,17.48,0,0,1-6.52,7.75,20.67,20.67,0,0,1-20.43,0,17.48,17.48,0,0,1-6.52-7.75,32.64,32.64,0,0,1,0-24,17.59,17.59,0,0,1,6.52-7.69,20.67,20.67,0,0,1,20.43,0,17.59,17.59,0,0,1,6.52,7.69,32.64,32.64,0,0,1,0,24Z" transform="translate(-456.98 -415.52)"/><path class="cls-1" d="M1041.32,515.69a29.94,29.94,0,0,0,14.86,3.64,32.2,32.2,0,0,0,10.39-1.58,24.57,24.57,0,0,0,13.8-11.45L1073,502a18.78,18.78,0,0,1-6.52,6.7q-4,2.46-10.51,2.46a19.18,19.18,0,0,1-10.27-2.64,17.33,17.33,0,0,1-6.64-7.69,26.36,26.36,0,0,1-2.24-9.28h44.28a27.13,27.13,0,0,0,.35-2.93c.08-1.1.12-2.31.12-3.64a29.79,29.79,0,0,0-3-13.57,23.25,23.25,0,0,0-8.87-9.57,26.54,26.54,0,0,0-14-3.52,28.43,28.43,0,0,0-14.44,3.64,25.59,25.59,0,0,0-10,10.51,38.68,38.68,0,0,0,0,32.76A25.23,25.23,0,0,0,1041.32,515.69Zm4.11-46.56a18.17,18.17,0,0,1,9.93-2.64c5,0,9.06,1.53,12.15,4.58,2.91,2.88,4.44,6.92,4.6,12.09h-35a24.46,24.46,0,0,1,1.86-6.39A17.31,17.31,0,0,1,1045.43,469.13Z" transform="translate(-456.98 -415.52)"/><path class="cls-1" d="M1136.79,468.72a18.78,18.78,0,0,0-7.69-7.63,25.32,25.32,0,0,0-12.39-2.82,25,25,0,0,0-12.74,3.58,27.92,27.92,0,0,0-10.1,10.28,31.21,31.21,0,0,0-3.93,16.08,34.1,34.1,0,0,0,3.52,16.09,25.26,25.26,0,0,0,9.63,10.28,27,27,0,0,0,13.86,3.58,21.35,21.35,0,0,0,11.68-3.17,21.7,21.7,0,0,0,7.57-7.87v8.57q0,8.58-4.58,14t-13.5,5.46q-8.34,0-13-3.28a14.27,14.27,0,0,1-5.87-9.4l-9.27,2.7a19.5,19.5,0,0,0,5.11,10.28,23.92,23.92,0,0,0,9.62,6,37.56,37.56,0,0,0,12.16,1.93q9.51,0,15.91-3.28a21.68,21.68,0,0,0,9.69-9.93q3.28-6.63,3.28-16.73v-54h-8.22Zm-5.64,35.64q-5,5.58-13.38,5.58-8.58,0-13.51-5.87t-4.93-15.86a26.34,26.34,0,0,1,2.23-11.09,18.8,18.8,0,0,1,6.34-7.75,16.76,16.76,0,0,1,9.87-2.88q8.34,0,13.38,5.58t5,16.14Q1136.2,498.79,1131.15,504.36Z" transform="translate(-456.98 -415.52)"/><rect class="cls-1" x="703.71" y="43.93" width="9.39" height="58.71"/><path class="cls-1" d="M1287.52,483.87v34.29h9.39V480.58q0-7.63-3.11-12.56a19.24,19.24,0,0,0-8.28-7.34,26.86,26.86,0,0,0-11.51-2.41,29,29,0,0,0-8.63,1.29,19.2,19.2,0,0,0-7.34,4.17,18.51,18.51,0,0,0-3.77,4.9l-.57-9.19h-8.22v58.72h9.39V486.92q0-7.51,2.76-12a16.46,16.46,0,0,1,7-6.45,19.65,19.65,0,0,1,8.45-2,14.64,14.64,0,0,1,10.28,3.82C1286.12,472.85,1287.52,477.37,1287.52,483.87Z" transform="translate(-456.98 -415.52)"/><polygon class="cls-1" points="312.35 189.8 347.35 189.8 347.35 181 312.35 181 312.35 155.99 357.33 155.99 357.33 147.18 302.96 147.18 302.96 224.68 359.09 224.68 359.09 215.87 312.35 215.87 312.35 189.8"/><path class="cls-1" d="M865.77,582.72a26.83,26.83,0,0,0-11.51-2.41,29,29,0,0,0-8.63,1.29,19.27,19.27,0,0,0-7.34,4.17,18.89,18.89,0,0,0-3.77,4.9l-.57-9.19h-8.22V640.2h9.39V609q0-7.51,2.76-12a16.43,16.43,0,0,1,7-6.46,19.68,19.68,0,0,1,8.45-2,14.64,14.64,0,0,1,10.28,3.82q4.17,3.81,4.17,13.56V640.2h9.39V602.62q0-7.64-3.11-12.56A19.24,19.24,0,0,0,865.77,582.72Z" transform="translate(-456.98 -415.52)"/><path class="cls-1" d="M929.66,583.83a26.54,26.54,0,0,0-14-3.52A28.43,28.43,0,0,0,901.19,584a25.67,25.67,0,0,0-10,10.51,38.68,38.68,0,0,0,0,32.76,25.32,25.32,0,0,0,10.16,10.51,29.94,29.94,0,0,0,14.86,3.64,32.2,32.2,0,0,0,10.39-1.58,24.57,24.57,0,0,0,13.8-11.45L933,624a18.87,18.87,0,0,1-6.52,6.7q-4.05,2.46-10.51,2.46a19.18,19.18,0,0,1-10.27-2.64,17.33,17.33,0,0,1-6.64-7.69,26.36,26.36,0,0,1-2.24-9.28h44.28a27.13,27.13,0,0,0,.35-2.93c.08-1.1.12-2.31.12-3.64a29.79,29.79,0,0,0-3.05-13.57A23.25,23.25,0,0,0,929.66,583.83Zm-24.19,7.34a18.16,18.16,0,0,1,9.92-2.64q7.51,0,12.16,4.58c2.91,2.88,4.44,6.92,4.6,12.09h-35a24.46,24.46,0,0,1,1.86-6.39A17.31,17.31,0,0,1,905.47,591.17Z" transform="translate(-456.98 -415.52)"/><path class="cls-1" d="M1036.53,590.76a18.78,18.78,0,0,0-7.69-7.63,25.32,25.32,0,0,0-12.39-2.82,25,25,0,0,0-12.74,3.58,27.92,27.92,0,0,0-10.1,10.28,31.21,31.21,0,0,0-3.93,16.08,34.1,34.1,0,0,0,3.52,16.09,25.26,25.26,0,0,0,9.63,10.28,26.85,26.85,0,0,0,13.86,3.58,21.35,21.35,0,0,0,11.68-3.17,21.7,21.7,0,0,0,7.57-7.87v8.57q0,8.58-4.58,14t-13.5,5.46q-8.34,0-13-3.29a14.29,14.29,0,0,1-5.88-9.4l-9.27,2.7a19.56,19.56,0,0,0,5.1,10.28,24,24,0,0,0,9.63,6,37.56,37.56,0,0,0,12.16,1.94q9.51,0,15.91-3.29a21.71,21.71,0,0,0,9.69-9.92q3.28-6.65,3.28-16.74v-54h-8.21Zm-5.64,35.64q-5,5.58-13.38,5.58-8.58,0-13.51-5.87t-4.93-15.86a26.34,26.34,0,0,1,2.23-11.09,18.8,18.8,0,0,1,6.34-7.75,16.76,16.76,0,0,1,9.87-2.88q8.33,0,13.38,5.58t5,16.14Q1035.94,620.82,1030.89,626.4Z" transform="translate(-456.98 -415.52)"/><path class="cls-1" d="M1088,618.59l-4.23,11.63-3.64-10.45-14.68-38.29h-10.68l18.67,44.63,5.87,14-3,7.63q-2.23,5.76-4.94,7.64a9.92,9.92,0,0,1-5.75,1.88,14.9,14.9,0,0,1-5.23-1,16,16,0,0,1-5-3.12l-2.58,8.23a21.86,21.86,0,0,0,5.93,3,23.2,23.2,0,0,0,7.34,1.12,18,18,0,0,0,7.46-1.47,16,16,0,0,0,5.87-4.82,35.47,35.47,0,0,0,4.87-9.1l27.6-68.58h-10.1Z" transform="translate(-456.98 -415.52)"/><path class="cls-1" d="M1189.52,565.57a30.64,30.64,0,0,0-13.68-2.87h-27.36v77.5h9.39V609.9h18a30.64,30.64,0,0,0,13.68-2.87,21.92,21.92,0,0,0,9.1-8.17,25.64,25.64,0,0,0,0-25.13A22,22,0,0,0,1189.52,565.57Zm-1.71,31.71c-2.81,2.54-7.28,3.82-13.38,3.82h-16.56V571.5h16.56c6.1,0,10.57,1.26,13.38,3.76s4.23,6.19,4.23,11S1190.63,594.74,1187.81,597.28Z" transform="translate(-456.98 -415.52)"/><path class="cls-1" d="M1337.35,631.39a13.63,13.63,0,0,1-5.87,1.18,9.38,9.38,0,0,1-6.34-2.12q-2.48-2.12-2.47-6.46v-34.4H1344v-8.11h-21.37V564.81l-9.4,2.58v58.25a17,17,0,0,0,2.41,9.1,13.24,13.24,0,0,0,6.17,5,21.9,21.9,0,0,0,8.33,1.58,23.85,23.85,0,0,0,8.52-1.41,20,20,0,0,0,6.4-3.87l-3.29-7.87A16,16,0,0,1,1337.35,631.39Z" transform="translate(-456.98 -415.52)"/><path class="cls-1" d="M1392.38,582.72a26.82,26.82,0,0,0-11.5-2.41,29,29,0,0,0-8.63,1.29,19.2,19.2,0,0,0-7.34,4.17,18.68,18.68,0,0,0-3.77,4.9l-.58-9.19h-8.22V640.2h9.4V609q0-7.51,2.76-12a16.35,16.35,0,0,1,7-6.46,19.69,19.69,0,0,1,8.46-2,14.62,14.62,0,0,1,10.27,3.82q4.17,3.81,4.17,13.56V640.2h9.39V602.62q0-7.64-3.11-12.56A19.13,19.13,0,0,0,1392.38,582.72Z" transform="translate(-456.98 -415.52)"/><path class="cls-1" d="M1456.28,583.83a26.61,26.61,0,0,0-14-3.52A28.45,28.45,0,0,0,1427.8,584a25.59,25.59,0,0,0-10,10.51,38.68,38.68,0,0,0,0,32.76A25.19,25.19,0,0,0,1428,637.73a29.87,29.87,0,0,0,14.85,3.64,32.2,32.2,0,0,0,10.39-1.58,24.57,24.57,0,0,0,13.8-11.45l-7.4-4.35a18.7,18.7,0,0,1-6.52,6.7q-4,2.46-10.51,2.46a19.21,19.21,0,0,1-10.27-2.64,17.33,17.33,0,0,1-6.64-7.69,26.36,26.36,0,0,1-2.24-9.28h44.28a27,27,0,0,0,.36-2.93c.07-1.1.11-2.31.11-3.64a29.66,29.66,0,0,0-3-13.57A23.29,23.29,0,0,0,1456.28,583.83Zm-24.2,7.34a18.17,18.17,0,0,1,9.93-2.64q7.52,0,12.15,4.58c2.92,2.88,4.44,6.92,4.61,12.09h-35a24.46,24.46,0,0,1,1.87-6.39A17.29,17.29,0,0,1,1432.08,591.17Z" transform="translate(-456.98 -415.52)"/><path class="cls-1" d="M1561.65,613.89q-3.3-3.75-11.51-5.4l-14.68-3c-3.21-.63-5.4-1.66-6.58-3.11a7.44,7.44,0,0,1-.17-9.4,10.41,10.41,0,0,1,4.58-3.23,19.82,19.82,0,0,1,7.22-1.17,19.26,19.26,0,0,1,9.28,2.41,14,14,0,0,1,6.45,7.57l7.87-5.16a21.28,21.28,0,0,0-8.92-9.63q-6-3.4-14.68-3.41a27.94,27.94,0,0,0-12,2.41,19.2,19.2,0,0,0-7.86,6.4,15.08,15.08,0,0,0-2.76,8.81,14.67,14.67,0,0,0,3.7,10.21q3.69,4.11,12.27,5.87l14.09,2.94c3,.63,5,1.62,6,3a7.33,7.33,0,0,1-1.94,10.81q-3.52,2.4-9.75,2.4a22.6,22.6,0,0,1-12-3,19.58,19.58,0,0,1-7.57-8.45l-8,5.75a26,26,0,0,0,11.09,10.33,34.57,34.57,0,0,0,15.8,3.64,31.15,31.15,0,0,0,12.21-2.23,18.59,18.59,0,0,0,8.22-6.4,16.43,16.43,0,0,0,2.93-9.69A13.44,13.44,0,0,0,1561.65,613.89Z" transform="translate(-456.98 -415.52)"/><path class="cls-1" d="M1165,448.21a6.22,6.22,0,1,0-6.22-6.22A6.22,6.22,0,0,0,1165,448.21Z" transform="translate(-456.98 -415.52)"/><path class="cls-1" d="M910,485q0-9.74,4.16-13.56a14.69,14.69,0,0,1,10.28-3.82h12L954,518.16h9.39L979,471.42l16.56,46.74h9.39l20.43-58.72h-10.45l-14.8,47.8-16-47.8h-9.39l-16,47.8L944,459.44H923.47A27,27,0,0,0,912,461.85a19.3,19.3,0,0,0-8.28,7.34q-3.1,4.94-3.11,12.57v36.4H910Z" transform="translate(-456.98 -415.52)"/><path class="cls-1" d="M975.39,580.31a26.86,26.86,0,0,0-11.51,2.41,19.24,19.24,0,0,0-8.28,7.34q-3.11,4.92-3.11,12.56V640.2h9.39V605.91q0-9.75,4.17-13.56a14.64,14.64,0,0,1,10.28-3.82,19.49,19.49,0,0,1,8.18,1.88l3.93-6.8a19.9,19.9,0,0,0-4.42-2A29,29,0,0,0,975.39,580.31Z" transform="translate(-456.98 -415.52)"/><path class="cls-1" d="M1294.33,580.31a26.86,26.86,0,0,0-11.51,2.41,19.24,19.24,0,0,0-8.28,7.34q-3.11,4.92-3.11,12.56V640.2h9.4V605.91q0-9.75,4.16-13.56a14.64,14.64,0,0,1,10.28-3.82,19.46,19.46,0,0,1,8.18,1.88l3.93-6.8a19.69,19.69,0,0,0-4.42-2A29,29,0,0,0,1294.33,580.31Z" transform="translate(-456.98 -415.52)"/><path class="cls-1" d="M1501.52,580.31a26.86,26.86,0,0,0-11.51,2.41,19.24,19.24,0,0,0-8.28,7.34q-3.11,4.92-3.11,12.56V640.2H1488V605.91q0-9.75,4.17-13.56a14.64,14.64,0,0,1,10.28-3.82,19.53,19.53,0,0,1,8.18,1.88l3.92-6.8a19.62,19.62,0,0,0-4.41-2A29,29,0,0,0,1501.52,580.31Z" transform="translate(-456.98 -415.52)"/><path class="cls-1" d="M1221.71,510.46l1.77,7.7h7.42V478.35q0-6.93-3-11.33a18.13,18.13,0,0,0-8.16-6.58,29.4,29.4,0,0,0-11.51-2.17q-9.4,0-15.74,4.05a20.71,20.71,0,0,0-8.69,10.63l7.64,4.7q2-5.88,6.22-8.52a19.13,19.13,0,0,1,10.33-2.64q6.46,0,10,3.58t3.52,10.16v2.25l-21.37,4.21q-7.87,1.53-12.27,5.81a15.85,15.85,0,0,0-1.77,19.73,15.8,15.8,0,0,0,7.11,5.34,26,26,0,0,0,9.63,1.76,27.21,27.21,0,0,0,8.33-1.35,22.16,22.16,0,0,0,7.64-4.23A14.68,14.68,0,0,0,1221.71,510.46Zm-5.49-2.93a17.27,17.27,0,0,1-5.57,2.7,23.76,23.76,0,0,1-6.52.88q-5.28,0-8.16-2.29a7.22,7.22,0,0,1-2.88-5.93,6.93,6.93,0,0,1,2.82-5.87c1.88-1.41,4.73-2.5,8.57-3.29l17-3.49v6.19a14.15,14.15,0,0,1-1.41,6.52A12.83,12.83,0,0,1,1216.22,507.53Z" transform="translate(-456.98 -415.52)"/><path class="cls-1" d="M1245.69,582.48a29.58,29.58,0,0,0-11.51-2.17q-9.4,0-15.74,4.05a20.75,20.75,0,0,0-8.69,10.63l7.64,4.7q2-5.88,6.22-8.52a19.13,19.13,0,0,1,10.33-2.64q6.46,0,10,3.58t3.53,10.16v2.25l-21.37,4.21q-7.87,1.53-12.28,5.81a15.86,15.86,0,0,0-1.76,19.73,15.74,15.74,0,0,0,7.11,5.34,25.84,25.84,0,0,0,9.63,1.76,27.21,27.21,0,0,0,8.33-1.35,22.16,22.16,0,0,0,7.64-4.23,14.68,14.68,0,0,0,2.9-3.29l1.77,7.7h7.42V600.39q0-6.93-3-11.33A18.13,18.13,0,0,0,1245.69,582.48Zm1.76,36A14.15,14.15,0,0,1,1246,625a12.83,12.83,0,0,1-3.88,4.58,17,17,0,0,1-5.58,2.7,23.64,23.64,0,0,1-6.51.88q-5.29,0-8.16-2.29a7.22,7.22,0,0,1-2.88-5.93,6.93,6.93,0,0,1,2.82-5.87c1.88-1.41,4.73-2.5,8.57-3.29l17-3.49Z" transform="translate(-456.98 -415.52)"/><path class="cls-1" d="M480.57,538.62c1-54.41,45.43-98.72,99.85-99.51a101.37,101.37,0,1,1,1.5,202.72H581c-23.7-.21-39.64-25.25-29.09-46.48.23-.46.47-.92.73-1.38a34.33,34.33,0,0,1,46.68-13.38L610.76,560a57.87,57.87,0,0,0-84,65.49,102.08,102.08,0,0,1-37.09-43.06c4.92-5.46,9.85-11.24,14.86-17.34,16.23-19.72,35.91-33.25,56.91-39.15,21.7-6.09,43.81-3.41,63.93,7.75L636.78,513c-25.66-14.23-53.93-17.63-81.73-9.83-25.66,7.2-49.43,23.41-68.74,46.87-1.55,1.88-3.09,3.72-4.62,5.54a102.54,102.54,0,0,1-1.12-17m101.35-123.1a124.95,124.95,0,1,0,125,124.94A125.08,125.08,0,0,0,581.92,415.52Z" transform="translate(-456.98 -415.52)"/></svg>