<svg id="Layer_1" data-name="Layer 1" xmlns="http://www.w3.org/2000/svg" xmlns:xlink="http://www.w3.org/1999/xlink" viewBox="0 0 500 500"><defs><style>.cls-1{fill:url(#linear-gradient);}</style><linearGradient id="linear-gradient" x1="826.19" y1="714.04" x2="1164.33" y2="273.85" gradientUnits="userSpaceOnUse"><stop offset="0" stop-color="#00a5cf"/><stop offset="1" stop-color="#72e3ad"/></linearGradient></defs><path class="cls-1" d="M756.78,536.71c1.94-108.88,90.91-197.54,199.79-199.12,113.21-1.65,205.83,90,205.83,202.81,0,111.83-91,202.82-202.82,202.82h-1.83c-47.43-.42-79.31-50.52-58.2-93,.46-.93.94-1.86,1.45-2.77a68.7,68.7,0,0,1,93.4-26.77l22.87-41.25a115.78,115.78,0,0,0-168.1,131A204.11,204.11,0,0,1,775,624.31c9.83-10.94,19.69-22.5,29.73-34.7,32.47-39.45,71.84-66.54,113.85-78.33,43.43-12.18,87.66-6.82,127.92,15.5l22.88-41.25C1018,457.05,961.43,450.25,905.8,465.86c-51.34,14.41-98.9,46.84-137.54,93.77-3.1,3.78-6.18,7.45-9.24,11.09a204.2,204.2,0,0,1-2.24-34m202.8-246.32c-137.85,0-250,112.15-250,250s112.15,250,250,250,250-112.14,250-250S1097.43,290.39,959.58,290.39Z" transform="translate(-709.58 -290.39)"/></svg>